<?xml version="1.0" encoding="utf-8"?>
<!-- Generator: Adobe Illustrator 15.0.2, SVG Export Plug-In . SVG Version: 6.00 Build 0)  -->
<!DOCTYPE svg PUBLIC "-//W3C//DTD SVG 1.1//EN" "http://www.w3.org/Graphics/SVG/1.1/DTD/svg11.dtd">
<svg version="1.1" id="Layer_1" xmlns="http://www.w3.org/2000/svg" xmlns:xlink="http://www.w3.org/1999/xlink" x="0px" y="0px"
	 width="316.8px" height="237.6px" viewBox="0 0 316.8 237.6" enable-background="new 0 0 316.8 237.6" xml:space="preserve">
<line fill="none" stroke="#ECEBE2" stroke-width="5.1096" x1="279.076" y1="53.689" x2="38.921" y2="53.689"/>
<polyline fill="none" stroke="#ECEBE2" stroke-width="4.8" points="288.867,42.923 161.977,6 29.133,42.923 "/>
<line fill="none" stroke="#ECEBE2" stroke-width="1.9161" x1="33.933" y1="47.728" x2="284.062" y2="47.728"/>
<line fill="none" stroke="#ECEBE2" stroke-width="1.9161" x1="277.375" y1="66.463" x2="40.627" y2="66.463"/>
<line fill="none" stroke="#ECEBE2" stroke-width="1.9161" x1="277.375" y1="75.754" x2="40.627" y2="75.754"/>
<line fill="none" stroke="#ECEBE2" stroke-width="1.9161" stroke-linecap="round" stroke-linejoin="round" stroke-dasharray="1.2774,2.5548" x1="274.814" y1="81.117" x2="43.182" y2="81.117"/>
<line fill="none" stroke="#ECEBE2" stroke-width="1.9161" stroke-linecap="round" stroke-linejoin="round" stroke-dasharray="1.2774,2.5548" x1="277.375" y1="83.868" x2="40.627" y2="83.868"/>
<line fill="none" stroke="#ECEBE2" stroke-width="1.9161" stroke-linecap="round" stroke-linejoin="round" stroke-dasharray="1.2774,2.5548" x1="277.375" y1="78.36" x2="40.627" y2="78.36"/>
<line fill="none" stroke="#ECEBE2" stroke-width="1.9161" x1="277.375" y1="74.127" x2="40.627" y2="74.127"/>
<line fill="none" stroke="#ECEBE2" stroke-width="1.9161" x1="277.375" y1="200.166" x2="40.627" y2="200.166"/>
<g>
	<line fill="none" stroke="#ECEBE2" stroke-width="1.9049" x1="276" y1="205.998" x2="42" y2="205.998"/>
	<line fill="none" stroke="#ECEBE2" stroke-width="1.9944" x1="287.25" y1="211.275" x2="30.75" y2="211.275"/>
	<line fill="none" stroke="#ECEBE2" stroke-width="2.0406" x1="293.25" y1="216.551" x2="24.75" y2="216.551"/>
	<line fill="none" stroke="#ECEBE2" stroke-width="2.0968" x1="300.75" y1="221.828" x2="17.25" y2="221.828"/>
	<line fill="none" stroke="#ECEBE2" stroke-width="2.1461" x1="307.5" y1="227.104" x2="10.5" y2="227.104"/>
	<line fill="none" stroke="#ECEBE2" stroke-width="2.2102" x1="316.5" y1="232.381" x2="1.5" y2="232.381"/>
</g>
<g>
	<polygon fill="#ECEBE1" points="170.068,86.9 165.216,84.346 164.958,74.127 153.038,74.127 152.771,84.346 147.929,86.9 
		147.929,195.057 150.535,195.057 150.483,197.611 167.518,197.611 167.46,195.057 170.068,195.057 	"/>
	<polygon fill="#ECEBE1" points="137.555,86.9 132.718,84.346 132.445,74.127 120.521,74.127 120.258,84.346 115.412,86.9 
		115.412,195.057 118.027,195.057 117.971,197.611 135,197.611 134.949,195.057 137.555,195.057 	"/>
	<polygon fill="#ECEBE1" points="105.062,86.9 100.214,84.346 99.952,74.127 88.018,74.127 87.765,84.346 82.909,86.9 
		82.909,195.057 85.523,195.057 85.463,197.611 102.502,197.611 102.456,195.057 105.062,195.057 	"/>
	<polygon fill="#ECEBE1" points="202.566,86.9 197.714,84.346 197.457,74.127 185.537,74.127 185.273,84.346 180.428,86.9 
		180.428,195.057 183.023,195.057 182.977,197.611 200.012,197.611 199.964,195.057 202.566,195.057 	"/>
	<polygon fill="#ECEBE1" points="235.064,86.9 230.223,84.346 229.955,74.127 218.03,74.127 217.772,84.346 212.921,86.9 
		212.921,195.057 215.531,195.057 215.48,197.611 232.509,197.611 232.462,195.057 235.064,195.057 	"/>
	<polygon fill="#ECEBE1" points="267.578,86.9 262.73,84.346 262.468,74.127 250.542,74.127 250.28,84.346 245.434,86.9 
		245.434,195.057 248.039,195.057 247.992,197.611 265.022,197.611 264.971,195.057 267.578,195.057 	"/>
	<polygon fill="#ECEBE1" points="72.562,86.9 67.717,84.346 67.449,74.127 55.534,74.127 55.261,84.346 50.424,86.9 50.424,195.057 
		53.026,195.057 52.975,197.611 70.008,197.611 69.952,195.057 72.562,195.057 	"/>
</g>
<polygon fill="#ECEBE1" points="71.32,43.598 161.527,18.018 247.486,43.598 265.328,43.598 265.335,43.575 265.322,43.575 
	161.564,12.703 52.698,43.564 52.707,43.598 "/>
<line fill="none" stroke="#ECEBE2" stroke-width="4.8" stroke-linecap="round" stroke-dasharray="4.8,9.6" x1="165.146" y1="18.318" x2="241.626" y2="41.719"/>
<line fill="none" stroke="#ECEBE2" stroke-width="4.8" stroke-linecap="round" stroke-dasharray="4.8,9.6" x1="81.652" y1="41.25" x2="161.527" y2="18.018"/>
<g>
	<g>
		<path fill="#00613E" d="M10.057,218.801c-1.616,0-2.99-0.676-4.115-2.031c-1.131-1.354-1.693-2.803-1.693-4.344
			c0-1.85,0.593-3.432,1.778-4.736c1.184-1.311,2.556-1.963,4.122-1.963c1.474,0,2.793,0.664,3.958,1.99
			c1.173,1.332,1.756,2.844,1.756,4.533c0,1.737-0.589,3.268-1.756,4.58C12.935,218.145,11.586,218.801,10.057,218.801
			L10.057,218.801z M10.093,206.203c-0.686,0-1.296,0.155-1.84,0.467c-0.546,0.313-0.916,0.858-1.109,1.637
			c-0.195,0.775-0.294,2.131-0.294,4.064c0,1.334,0.057,2.397,0.168,3.196c0.111,0.793,0.394,1.453,0.853,1.976
			c0.454,0.522,1.173,0.783,2.147,0.783c0.595,0,1.195-0.16,1.794-0.476c0.599-0.317,0.99-0.94,1.173-1.871
			c0.183-0.926,0.275-2.356,0.275-4.28c0-1.748-0.113-2.949-0.34-3.617c-0.227-0.664-0.593-1.146-1.093-1.439
			C11.333,206.348,10.752,206.203,10.093,206.203L10.093,206.203z"/>
		<path fill="#00613E" d="M31.725,218.037v-11.55h-1.967v-0.475h10.55l0.158,3.773h-0.417c0-0.115-0.108-0.543-0.328-1.279
			c-0.218-0.736-0.536-1.258-0.958-1.562c-0.417-0.307-1.125-0.459-2.12-0.459h-2.71v5.416h0.514c0.543,0,0.979-0.036,1.293-0.112
			c0.316-0.072,0.593-0.281,0.825-0.623c0.233-0.34,0.374-0.881,0.423-1.613h0.475v5.295h-0.475
			c-0.05-0.797-0.174-1.373-0.378-1.729c-0.198-0.359-0.456-0.576-0.768-0.656c-0.309-0.082-0.775-0.123-1.396-0.123h-0.514v5.695
			h2.2v0.475h-6.375v-0.475L31.725,218.037L31.725,218.037z"/>
		<path fill="#00613E" d="M76.963,210.205l2.262,5.502l3.422-9.22h-1.818v-0.475h3.634v0.475h-1.286L78.564,218.8h-0.327
			l-2.383-5.787l-2.332,5.787h-0.346l-5.011-12.312h-1.4v-0.475h13.042v0.475h-1.345L76.963,210.205L76.963,210.205z
			 M74.215,215.816l1.364-3.444l-2.402-5.884H70.41L74.215,215.816L74.215,215.816z M75.453,206.488l1.257,3.066l1.242-3.066H75.453
			L75.453,206.488z"/>
		<polygon fill="#00613E" points="103.399,218.037 103.399,206.488 101.359,206.488 101.359,206.014 107.677,206.014 
			107.677,206.488 105.619,206.488 105.619,218.037 107.677,218.037 107.677,218.512 101.359,218.512 101.359,218.037 		"/>
		<path fill="#00613E" d="M136.764,205.875l0.053,3.242h-0.438c-0.623-1.943-1.719-2.914-3.29-2.914
			c-0.868,0-1.544,0.237-2.028,0.719c-0.479,0.483-0.721,0.979-0.721,1.498c0,0.477,0.2,0.887,0.6,1.221
			c0.4,0.336,1.131,0.594,2.196,0.779c1.063,0.182,1.87,0.406,2.427,0.67c0.557,0.262,1.023,0.701,1.408,1.318
			c0.378,0.612,0.571,1.315,0.571,2.114c0,1.226-0.396,2.242-1.195,3.058c-0.798,0.813-1.788,1.221-2.968,1.221
			c-0.964,0-1.924-0.357-2.881-1.072l-0.876,0.783h-0.325v-3.496h0.401c0.367,1.101,0.878,1.928,1.534,2.48
			c0.662,0.553,1.384,0.83,2.163,0.83c0.778,0,1.493-0.259,2.141-0.771s0.971-1.16,0.971-1.945c0-0.655-0.224-1.211-0.672-1.661
			c-0.449-0.447-1.181-0.761-2.191-0.933c-1.01-0.17-1.784-0.369-2.324-0.598c-0.541-0.228-1.006-0.619-1.391-1.185
			c-0.382-0.562-0.577-1.184-0.577-1.866c0-0.943,0.338-1.787,1.005-2.529c0.672-0.744,1.585-1.113,2.733-1.113
			c0.961,0,1.863,0.303,2.695,0.914c0.229-0.221,0.428-0.475,0.595-0.766L136.764,205.875L136.764,205.875z"/>
		<path fill="#00613E" d="M166.708,205.875v3.709h-0.396c-0.438-2.256-1.562-3.381-3.373-3.381c-0.979,0-1.691,0.379-2.137,1.146
			c-0.449,0.762-0.67,2.369-0.67,4.824c0,2.02,0.096,3.395,0.287,4.117c0.192,0.729,0.524,1.25,1.004,1.562
			c0.477,0.314,0.996,0.474,1.568,0.474c0.745,0,1.448-0.283,2.102-0.845c0.658-0.562,1.166-1.469,1.521-2.707h0.441l-0.147,3.812
			h-0.386c-0.14-0.4-0.36-0.736-0.671-1.008c-0.979,0.813-1.989,1.221-3.023,1.221c-1.32,0-2.521-0.623-3.611-1.875
			c-1.085-1.248-1.63-2.779-1.63-4.584c0-1.846,0.534-3.41,1.604-4.693c1.071-1.282,2.306-1.922,3.71-1.922
			c1.082,0,2.035,0.387,2.857,1.164c0.246-0.389,0.43-0.725,0.555-1.016h0.396V205.875z"/>
		<path fill="#00613E" d="M191.223,218.801c-1.612,0-2.985-0.676-4.114-2.031c-1.127-1.354-1.689-2.803-1.689-4.344
			c0-1.85,0.59-3.432,1.773-4.736c1.184-1.311,2.561-1.963,4.127-1.963c1.471,0,2.789,0.664,3.959,1.99
			c1.168,1.332,1.752,2.844,1.752,4.533c0,1.737-0.584,3.268-1.758,4.58C194.1,218.145,192.751,218.801,191.223,218.801
			L191.223,218.801z M191.259,206.203c-0.682,0-1.293,0.155-1.84,0.467c-0.543,0.313-0.912,0.858-1.107,1.637
			c-0.197,0.775-0.295,2.131-0.295,4.064c0,1.334,0.059,2.397,0.171,3.196c0.108,0.793,0.396,1.453,0.854,1.976
			c0.453,0.522,1.168,0.783,2.146,0.783c0.597,0,1.194-0.16,1.793-0.476c0.601-0.317,0.993-0.94,1.173-1.871
			c0.186-0.926,0.275-2.356,0.275-4.28c0-1.748-0.109-2.949-0.336-3.617c-0.229-0.664-0.594-1.146-1.096-1.439
			C192.501,206.348,191.921,206.203,191.259,206.203L191.259,206.203z"/>
		<polygon fill="#00613E" points="224.735,206.488 224.735,218.801 224.353,218.801 216.123,206.434 216.087,206.434 
			216.087,218.037 218.203,218.037 218.203,218.512 213.757,218.512 213.757,218.037 215.612,218.037 215.612,206.488 
			213.626,206.488 213.626,206.014 218.397,206.014 224.222,214.775 224.261,214.775 224.261,206.488 222.189,206.488 
			222.189,206.014 226.626,206.014 226.626,206.488 		"/>
		<path fill="#00613E" d="M252.371,205.875l0.055,3.242h-0.439c-0.621-1.943-1.719-2.914-3.287-2.914
			c-0.867,0-1.547,0.237-2.027,0.719c-0.48,0.483-0.725,0.979-0.725,1.498c0,0.477,0.203,0.887,0.604,1.221
			c0.396,0.336,1.132,0.594,2.195,0.779c1.062,0.182,1.871,0.406,2.428,0.67c0.556,0.262,1.023,0.701,1.404,1.318
			c0.387,0.612,0.573,1.315,0.573,2.114c0,1.226-0.396,2.242-1.194,3.058c-0.803,0.813-1.787,1.221-2.972,1.221
			c-0.964,0-1.919-0.357-2.872-1.072l-0.881,0.783h-0.324v-3.496h0.4c0.365,1.101,0.876,1.928,1.535,2.48
			c0.658,0.552,1.379,0.83,2.162,0.83c0.777,0,1.492-0.259,2.137-0.771c0.654-0.512,0.975-1.16,0.975-1.945
			c0-0.655-0.223-1.211-0.671-1.661c-0.454-0.447-1.185-0.761-2.192-0.933c-1.008-0.17-1.784-0.369-2.324-0.598
			c-0.539-0.228-1.006-0.619-1.389-1.185c-0.387-0.562-0.58-1.184-0.58-1.866c0-0.943,0.334-1.787,1.008-2.529
			c0.671-0.744,1.578-1.113,2.73-1.113c0.963,0,1.861,0.303,2.693,0.914c0.23-0.221,0.428-0.475,0.594-0.766L252.371,205.875
			L252.371,205.875z"/>
		<polygon fill="#00613E" points="276.812,218.037 276.812,206.488 274.774,206.488 274.774,206.014 281.091,206.014 
			281.091,206.488 279.031,206.488 279.031,218.037 281.091,218.037 281.091,218.512 274.774,218.512 274.774,218.037 		"/>
		<polygon fill="#00613E" points="311.439,206.488 311.439,218.801 311.062,218.801 302.832,206.434 302.791,206.434 
			302.791,218.037 304.912,218.037 304.912,218.512 300.462,218.512 300.462,218.037 302.316,218.037 302.316,206.488 
			300.333,206.488 300.333,206.014 305.103,206.014 310.929,214.775 310.97,214.775 310.97,206.488 308.897,206.488 
			308.897,206.014 313.333,206.014 313.333,206.488 		"/>
	</g>
	<path fill="#00613E" d="M17.27,157.221v37.643h9.145c1.762,0,3.151-0.133,4.163-0.395c1.009-0.262,2.01-0.9,2.993-1.914
		c0.983-1.014,1.742-2.219,2.276-3.615c0.538-1.397,1.112-3.342,1.718-5.834h1.428l-1.124,13.31H3.629v-1.552h6.409v-37.643H3.629
		v-1.551h20.417v1.551H17.27z"/>
	<path fill="#00613E" d="M51.181,166.504v13.307h2.804c0.986,0,1.822-0.098,2.509-0.291c0.686-0.188,1.304-0.713,1.853-1.563
		c0.545-0.847,0.858-2.177,0.938-3.98h1.204v13.148h-1.204c-0.123-2.502-0.606-4.148-1.449-4.945
		c-0.841-0.791-2.125-1.188-3.851-1.188h-2.804v14.188H57.5c3.58,0,6.06-0.754,7.44-2.258c1.38-1.506,2.205-3.82,2.465-6.955h1.179
		l-0.303,10.395h-27.51v-1.182h4.926v-28.672h-4.926v-1.184h26.38l0.532,8.284h-1.182c-0.401-2.514-1.226-4.328-2.476-5.436
		c-1.248-1.111-3.334-1.666-6.248-1.666L51.181,166.504L51.181,166.504z"/>
	<path fill="#00613E" d="M91.694,185.963H86.44v-1.183h16.06v1.183h-4.491c0,3.967-1.269,6.809-3.817,8.527
		c-2.546,1.721-5.205,2.581-7.983,2.581c-4.056,0-7.437-1.618-10.135-4.86c-2.7-3.238-4.047-7.025-4.047-11.359
		c0-4.397,1.378-8.203,4.141-11.424c2.76-3.217,6.201-4.822,10.321-4.822c2.127,0,4.166,0.619,6.105,1.854
		c0.586,0.367,0.996,0.551,1.23,0.551c0.491,0,0.986-0.438,1.478-1.316h1.042l0.327,8.423H95.49
		c-1.283-5.554-4.312-8.332-9.095-8.332c-2.484,0-4.298,0.562-5.439,1.68c-1.141,1.119-1.838,2.533-2.093,4.234
		c-0.255,1.702-0.382,4.143-0.382,7.301c0,5.696,0.19,9.467,0.565,11.315c0.381,1.854,1.156,3.242,2.326,4.177
		c1.175,0.936,2.609,1.401,4.307,1.401c1.355,0,2.563-0.279,3.62-0.834c1.058-0.557,1.72-1.385,1.991-2.49
		c0.271-1.102,0.406-2.748,0.406-4.938v-1.669H91.694z"/>
	<path fill="#00613E" d="M119.371,186.682h-9.857l-3.171,8.494h5.741v1.182h-11.247v-1.182h4.279l11.317-30.57h0.716l10.854,30.57
		h4.165v1.182h-14.79v-1.182h5.021L119.371,186.682z M109.953,185.502h9.001l-4.375-12.428h-0.092L109.953,185.502z"/>
	<path fill="#00613E" d="M145.127,166.504v28.672h6.965c1.342,0,2.396-0.104,3.169-0.301c0.773-0.199,1.534-0.689,2.28-1.461
		c0.75-0.771,1.326-1.688,1.736-2.752c0.41-1.066,0.846-2.547,1.309-4.443h1.088l-0.859,10.139h-26.078v-1.182h4.884v-28.672h-4.884
		v-1.185h15.552v1.185H145.127z"/>
	<g>
		<path fill="#BB942E" d="M222.759,170.34h4.777v16.818c0,3.631,0.57,6.368,2.168,8.028c1.332,1.525,3.437,2.418,6.047,2.418
			c2.168,0,3.891-0.381,4.972-0.826l-0.255-4.207c-0.826,0.253-1.721,0.386-3.249,0.386c-3.122,0-4.206-2.168-4.206-5.992V170.34
			h13.996v-4.271h-13.996v-7.395l-5.477,1.725v5.67h-4.777c0,0-3.389,0-6.699,0c-10.07,0-16.566,6.244-16.566,15.736
			c0,9.426,6.055,15.799,15.353,15.799c4.146,0,7.393-1.082,8.856-1.848l-0.955-4.203c-1.595,0.701-3.694,1.527-6.883,1.527
			c-6.113,0-10.699-4.396-10.699-11.529c0-6.432,3.818-11.213,10.896-11.213C219.117,170.34,222.759,170.34,222.759,170.34
			L222.759,170.34z M251.626,196.902V166.07h-5.607v30.832H251.626L251.626,196.902z M270.026,165.369
			c-8.532,0-15.289,6.051-15.289,16.373c0,9.75,6.437,15.862,14.783,15.862c7.451,0,15.354-4.967,15.354-16.371
			C284.875,171.803,278.885,165.369,270.026,165.369L270.026,165.369z M269.899,169.572c6.625,0,9.238,6.63,9.238,11.854
			c0,6.939-4.015,11.979-9.365,11.979c-5.479,0-9.364-5.102-9.364-11.852C260.408,175.686,263.276,169.572,269.899,169.572
			L269.899,169.572z M288.058,196.902h5.604v-18.532c0-0.957,0.129-1.91,0.383-2.613c0.955-3.123,3.822-5.736,7.518-5.736
			c5.29,0,7.137,4.146,7.137,9.111v17.771h5.608v-18.409c0-10.576-6.627-13.123-10.897-13.123c-5.095,0-8.662,2.866-10.191,5.799
			h-0.129l-0.315-5.099H287.8c0.191,2.554,0.258,5.162,0.258,8.347V196.902L288.058,196.902z"/>
		<path fill="#BB942E" d="M248.844,153.977c-2.038,0-3.507,1.529-3.507,3.504c0,1.912,1.406,3.439,3.381,3.439
			c2.227,0,3.631-1.527,3.566-3.439C252.285,155.506,250.944,153.977,248.844,153.977L248.844,153.977z"/>
	</g>
	<g>
		<path fill="#BB942E" d="M175.689,183.902l-4.229,12.691h-5.879l13.928-40.871h7.125l13.945,40.871h-6.017l-4.295-12.691H175.689z
			 M188.964,179.287l-3.863-11.437c-0.909-2.67-1.516-5.098-2.121-7.459h-0.121c-0.605,2.426-1.271,4.91-2.061,7.396l-3.973,11.5
			H188.964z"/>
	</g>
	<g>
		<path fill="#A07515" d="M221.166,58.117c0.383,0.035,0.492,0.282,0.664,0.655c0.592,1.264,1.154,2.528,1.735,3.792
			c0.12,0.265,0.476,1.082,0.628,1.462c0.046,0.019,0.092,0.028,0.137,0.028s0.082-0.01,0.107-0.028
			c0.266-0.753,0.811-1.918,1.137-2.582c0.283,0.638,0.811,1.773,1.102,2.582c0.035,0.019,0.082,0.028,0.128,0.028
			s0.083-0.01,0.108-0.028c0.373-0.972,0.736-1.862,1.137-2.791l0.662-1.535c0.547-1.265,0.629-1.538,1.084-1.583l0.174-0.019
			c0.062-0.072,0.054-0.189-0.02-0.218c-0.236,0.019-0.501,0.027-0.846,0.027c-0.283,0-0.527-0.009-0.875-0.027
			c-0.07,0.037-0.081,0.137-0.007,0.218l0.264,0.019c0.188,0.009,0.3,0.083,0.3,0.211c0,0.108-0.154,0.5-0.272,0.826
			c-0.063,0.164-0.546,1.373-0.728,1.81c-0.264,0.646-0.535,1.282-0.815,1.919c-0.302-0.691-0.619-1.374-0.929-2.074
			c-0.047-0.108-0.064-0.182-0.064-0.218s0.035-0.127,0.081-0.218c0.137-0.318,0.521-1.109,0.71-1.445
			c0.202-0.373,0.363-0.784,0.745-0.811l0.264-0.019c0.056-0.072,0.046-0.189-0.019-0.218c-0.209,0.019-0.57,0.027-0.871,0.027
			c-0.338,0-0.611-0.009-0.855-0.027c-0.062,0.028-0.082,0.128-0.02,0.218l0.273,0.019c0.291,0.018,0.338,0.119,0.01,0.892
			c-0.198,0.491-0.364,0.837-0.537,1.191c-0.254-0.563-0.51-1.138-0.701-1.582c-0.172-0.41-0.163-0.476,0.191-0.501l0.236-0.019
			c0.055-0.072,0.046-0.189-0.02-0.218c-0.209,0.019-0.545,0.027-0.998,0.027c-0.364,0-0.711-0.009-0.975-0.027
			c-0.072,0.037-0.082,0.146-0.018,0.218l0.218,0.019c0.308,0.026,0.445,0.22,0.582,0.501c0.345,0.727,0.681,1.455,0.999,2.182
			c0.046,0.109,0.071,0.191,0.071,0.237c0,0.044-0.062,0.198-0.144,0.373c-0.236,0.509-0.481,1.018-0.699,1.473
			c-0.527-1.119-1.064-2.256-1.573-3.393c-0.283-0.646-0.474-1.109-0.474-1.219c0-0.084,0.108-0.138,0.301-0.155l0.209-0.019
			c0.055-0.062,0.063-0.189-0.02-0.218c-0.316,0.019-0.783,0.027-1.037,0.027c-0.279,0-0.689-0.009-0.935-0.027
			c-0.075,0.037-0.083,0.164-0.029,0.218L221.166,58.117z M217.927,59.41c0.101-0.273,0.191-0.492,0.219-0.537h0.02
			c0.056,0.108,0.137,0.354,0.209,0.571l0.49,1.483c0.082,0.245,0.064,0.282-0.199,0.282h-1.117c-0.256,0-0.266-0.009-0.191-0.218
			L217.927,59.41z M219.556,63.037c0.072,0.218,0.117,0.382,0.117,0.48c0,0.091-0.127,0.146-0.316,0.164l-0.264,0.028
			c-0.064,0.047-0.057,0.192,0.017,0.229c0.265-0.009,0.609-0.028,1.045-0.028c0.41,0,0.728,0.01,1.101,0.028
			c0.045-0.037,0.063-0.183,0-0.229l-0.243-0.028c-0.394-0.044-0.511-0.181-0.773-0.963l-1.245-3.655
			c-0.137-0.399-0.281-0.817-0.399-1.218c-0.017-0.063-0.082-0.083-0.138-0.083c-0.099,0.118-0.254,0.282-0.473,0.347
			c0.027,0.146-0.025,0.317-0.152,0.646L216.9,61.21c-0.381,1.018-0.638,1.607-0.8,2.025c-0.127,0.327-0.327,0.429-0.545,0.445
			l-0.302,0.028c-0.055,0.047-0.037,0.192,0.02,0.229c0.245-0.009,0.572-0.028,0.872-0.028c0.427,0.009,0.709,0.01,0.946,0.028
			c0.082-0.037,0.082-0.183,0.019-0.229l-0.302-0.028c-0.219-0.018-0.264-0.072-0.264-0.181c0-0.102,0.063-0.346,0.199-0.755
			l0.319-0.954c0.063-0.192,0.116-0.218,0.345-0.218h1.374c0.272,0,0.31,0.025,0.372,0.227L219.556,63.037z M210.716,62.547
			c0,0.953-0.018,1.08-0.545,1.134l-0.272,0.028c-0.056,0.055-0.037,0.201,0.021,0.227c0.508-0.018,0.797-0.025,1.181-0.025h0.835
			c0.938,0,1.801,0.009,2.264,0.025c0.129-0.244,0.385-1.171,0.385-1.271c0-0.063-0.174-0.101-0.229-0.056
			c-0.183,0.464-0.419,0.791-0.599,0.899c-0.147,0.083-0.338,0.12-1.11,0.12c-0.72,0-0.894-0.11-0.99-0.209
			c-0.166-0.174-0.192-0.41-0.192-0.982v-3.166c0-0.957,0.021-1.101,0.555-1.146l0.219-0.017c0.055-0.037,0.037-0.2-0.017-0.229
			c-0.455,0.019-0.765,0.027-1.118,0.027c-0.364,0-0.673-0.009-1.182-0.027c-0.057,0.028-0.074,0.19-0.02,0.229l0.229,0.017
			c0.572,0.046,0.59,0.189,0.59,1.146v3.275H210.716z M201.921,58.455c0-0.256,0.029-0.292,0.593-0.292
			c1.01,0,1.456,0.683,1.456,1.399c0,0.619-0.211,0.938-0.456,1.128c-0.265,0.201-0.608,0.237-0.937,0.237
			c-0.465,0-0.601-0.019-0.627-0.046c-0.029-0.037-0.029-0.137-0.029-0.3V58.455L201.921,58.455z M201.178,62.545
			c0,0.956-0.021,1.073-0.546,1.137l-0.229,0.028c-0.056,0.064-0.035,0.202,0.02,0.229c0.427-0.019,0.755-0.028,1.137-0.028
			c0.361,0,0.672,0.01,1.082,0.028c0.055-0.027,0.07-0.183,0.02-0.229l-0.191-0.028c-0.527-0.072-0.547-0.181-0.547-1.137v-1.146
			c0-0.189,0.02-0.198,0.43-0.198c0.361,0,0.508,0.09,0.645,0.291c0.28,0.409,0.654,1.036,0.892,1.373
			c0.646,0.92,1.11,1.146,1.883,1.146c0.173,0,0.317-0.018,0.399-0.044c0.045-0.037,0.037-0.109-0.01-0.128
			c-0.244-0.019-0.474-0.118-0.627-0.254c-0.617-0.52-1.101-1.246-1.826-2.419c-0.047-0.072-0.092-0.164-0.047-0.218
			c0.455-0.182,1.137-0.654,1.137-1.52c0-0.637-0.317-1.045-0.754-1.275c-0.42-0.226-0.955-0.271-1.52-0.271
			c-0.893,0-1.521,0.028-2.027,0.074c-0.072,0.035-0.072,0.181-0.011,0.226l0.293,0.037c0.372,0.044,0.399,0.2,0.399,1.064
			L201.178,62.545L201.178,62.545z M195.104,62.547c0,0.953-0.046,1.09-0.563,1.134l-0.301,0.028
			c-0.054,0.055-0.037,0.201,0.018,0.227c0.537-0.018,0.848-0.025,1.236-0.025h0.818c0.809,0,1.619,0.009,2.438,0.025
			c0.117-0.244,0.346-0.943,0.41-1.262c-0.037-0.083-0.166-0.109-0.229-0.063c-0.236,0.473-0.481,0.791-0.646,0.883
			c-0.201,0.1-0.465,0.137-1.164,0.137c-0.801,0-0.992-0.102-1.103-0.209c-0.144-0.155-0.172-0.464-0.172-0.946v-1.283
			c0-0.236,0.028-0.246,0.301-0.246h0.526c0.354,0,0.572,0.01,0.699,0.046c0.184,0.046,0.248,0.183,0.283,0.347l0.082,0.354
			c0.047,0.056,0.199,0.056,0.236-0.009c0-0.201-0.035-0.547-0.035-0.874c0-0.345,0.035-0.701,0.035-0.918
			c-0.037-0.062-0.189-0.062-0.236-0.009l-0.072,0.373c-0.045,0.227-0.109,0.282-0.219,0.318s-0.391,0.055-0.773,0.055h-0.526
			c-0.272,0-0.301,0-0.301-0.255v-1.818c0-0.348,0-0.366,0.272-0.366h0.654c0.4,0,0.689,0.01,0.883,0.057
			c0.473,0.118,0.555,0.437,0.69,0.863c0.046,0.056,0.19,0.037,0.228-0.018c-0.035-0.401-0.091-1.056-0.146-1.21
			c-0.107,0.028-0.644,0.028-1.228,0.028h-1.709c-0.373,0-0.683-0.01-1.072-0.028c-0.055,0.028-0.071,0.191-0.018,0.229l0.145,0.019
			c0.537,0.062,0.557,0.201,0.557,1.146L195.104,62.547L195.104,62.547z M187.992,58.982c0-0.41,0.018-0.637,0.09-0.69
			c0.072-0.055,0.364-0.128,0.899-0.128c2.383,0,2.867,1.691,2.867,2.691c0,1.692-0.793,2.848-2.558,2.848
			c-0.572,0-0.92-0.092-1.119-0.373c-0.153-0.219-0.182-0.51-0.182-0.991v-3.356H187.992z M187.246,62.547
			c0,0.953-0.018,1.062-0.545,1.134l-0.207,0.028c-0.057,0.055-0.037,0.201,0.017,0.227c0.428-0.015,0.755-0.023,1.136-0.023
			c0.318-0.001,0.898,0.069,1.482,0.069c0.701,0,1.445-0.116,2.037-0.435c1.037-0.563,1.592-1.556,1.592-2.71
			c0-1.2-0.619-2.237-1.848-2.686c-0.591-0.217-1.234-0.271-2-0.271c-0.772,0-1.509,0.028-2.281,0.074
			c-0.09,0.035-0.084,0.181-0.008,0.227l0.198,0.026c0.382,0.055,0.427,0.246,0.427,0.883V62.547L187.246,62.547z M184.255,60.19
			c0-0.419-0.021-1.546,0.136-1.874c0.037-0.071,0.218-0.145,0.509-0.189l0.127-0.017c0.057-0.055,0.057-0.183-0.02-0.229
			c-0.309,0.019-0.545,0.027-0.936,0.027c-0.345,0-0.652-0.009-1.072-0.027c-0.072,0.028-0.082,0.174-0.018,0.229l0.152,0.017
			c0.365,0.046,0.512,0.101,0.564,0.182c0.174,0.273,0.182,1.455,0.182,1.883v1.946c0,0.19,0,0.336-0.035,0.382h-0.018
			c-0.43-0.437-0.873-0.944-1.502-1.646l-0.884-0.992c-0.299-0.336-1.373-1.537-1.556-2c-0.117,0.019-0.271,0.027-0.418,0.027
			c-0.162,0-0.645,0.001-1.025-0.027c-0.074,0.037-0.074,0.174-0.02,0.229l0.156,0.017c0.219,0.026,0.437,0.092,0.562,0.218
			c0.189,0.209,0.199,0.4,0.199,0.655v2.629c0,0.436,0.01,1.545-0.118,1.873c-0.045,0.1-0.19,0.155-0.399,0.181l-0.244,0.028
			c-0.057,0.056-0.045,0.183,0.018,0.229c0.316-0.019,0.562-0.028,0.943-0.028c0.338,0,0.654,0.01,1.064,0.028
			c0.062-0.047,0.07-0.155,0.02-0.229l-0.283-0.028c-0.228-0.018-0.41-0.072-0.463-0.172c-0.155-0.273-0.166-1.455-0.166-1.881
			v-1.983c0-0.272,0.011-0.481,0.047-0.591h0.019c0.19,0.2,0.81,0.945,1.056,1.229l2.11,2.399c0.792,0.9,1.054,1.219,1.162,1.373
			c0.103,0,0.153-0.044,0.174-0.099c-0.026-0.237-0.026-1.319-0.026-1.592V60.19H184.255z M176.152,61.237
			c0,1.384-0.499,2.42-1.82,2.42c-1.392,0-1.845-0.965-1.845-2.429v-1.964c0-0.946,0.017-1.1,0.544-1.146l0.219-0.019
			c0.056-0.036,0.035-0.189-0.018-0.218c-0.445,0.019-0.745,0.027-1.119,0.027c-0.361,0-0.672-0.009-1.127-0.027
			c-0.054,0.028-0.072,0.183-0.018,0.218l0.228,0.019c0.527,0.047,0.546,0.2,0.546,1.146v2.146c0,1.083,0.228,1.746,0.707,2.146
			c0.445,0.382,1.073,0.499,1.702,0.499c0.673,0,1.347-0.235,1.737-0.662c0.508-0.546,0.634-1.382,0.634-2.173v-1.028
			c0-0.508,0-1.555,0.129-1.854c0.054-0.118,0.228-0.201,0.454-0.22l0.219-0.019c0.045-0.055,0.055-0.172-0.019-0.218
			c-0.327,0.019-0.571,0.027-0.955,0.027c-0.353,0-0.69-0.009-1.035-0.027c-0.056,0.037-0.071,0.155-0.019,0.218l0.228,0.019
			c0.228,0.019,0.394,0.083,0.455,0.191c0.155,0.272,0.173,1.319,0.173,1.882V61.237L176.152,61.237z M162.83,62.547
			c0,0.953-0.045,1.09-0.562,1.134l-0.301,0.028c-0.055,0.055-0.036,0.201,0.019,0.227c0.537-0.018,0.847-0.025,1.236-0.025h0.817
			c0.81,0,1.617,0.009,2.437,0.025c0.119-0.244,0.346-0.943,0.409-1.262c-0.035-0.083-0.162-0.109-0.227-0.063
			c-0.236,0.473-0.482,0.791-0.646,0.883c-0.201,0.1-0.465,0.137-1.164,0.137c-0.801,0-0.991-0.102-1.1-0.209
			c-0.146-0.155-0.172-0.464-0.172-0.946v-1.283c0-0.236,0.024-0.246,0.299-0.246h0.527c0.354,0,0.571,0.01,0.7,0.046
			c0.181,0.046,0.244,0.183,0.28,0.347l0.08,0.354c0.047,0.056,0.201,0.056,0.238-0.009c0-0.201-0.035-0.547-0.035-0.874
			c0-0.345,0.035-0.701,0.035-0.918c-0.037-0.062-0.191-0.062-0.238-0.009l-0.07,0.373c-0.046,0.227-0.109,0.282-0.219,0.318
			c-0.108,0.036-0.393,0.055-0.771,0.055h-0.527c-0.273,0-0.299,0-0.299-0.255v-1.818c0-0.348,0-0.366,0.271-0.366h0.653
			c0.401,0,0.691,0.01,0.883,0.057c0.473,0.118,0.556,0.437,0.69,0.863c0.046,0.056,0.192,0.037,0.229-0.018
			c-0.036-0.401-0.092-1.056-0.146-1.21c-0.109,0.028-0.646,0.028-1.227,0.028h-1.71c-0.372,0-0.683-0.01-1.072-0.028
			c-0.056,0.028-0.073,0.191-0.019,0.229l0.146,0.019c0.535,0.062,0.554,0.201,0.554,1.146v3.272H162.83z M154.973,60.946
			c0,1.175,0.562,2.001,1.29,2.5c0.665,0.445,1.446,0.608,2.265,0.608c0.582,0,1.236-0.134,1.438-0.207
			c0.1-0.037,0.209-0.073,0.316-0.091c0.137-0.172,0.373-0.772,0.438-1.246c-0.036-0.063-0.172-0.083-0.236-0.037
			c-0.209,0.537-0.729,1.3-1.9,1.3c-1.492,0-2.701-1.054-2.701-2.965c0-1.881,1.183-2.766,2.574-2.766
			c1.318,0,1.728,0.71,1.863,1.33c0.064,0.053,0.201,0.044,0.246-0.019c-0.072-0.556-0.117-1.128-0.127-1.337
			c-0.082,0.009-0.146-0.009-0.255-0.037c-0.429-0.118-1.118-0.218-1.61-0.218c-0.945,0-1.791,0.255-2.455,0.773
			C155.428,59.073,154.973,59.937,154.973,60.946 M151.898,62.527c0,0.965-0.018,1.092-0.554,1.154l-0.228,0.028
			c-0.055,0.056-0.036,0.202,0.018,0.229c0.455-0.019,0.764-0.028,1.146-0.028c0.363,0,0.672,0.01,1.127,0.028
			c0.054-0.027,0.072-0.191,0.018-0.229l-0.228-0.028c-0.536-0.062-0.554-0.189-0.554-1.154V59.29c0-0.963,0.018-1.118,0.554-1.164
			l0.228-0.017c0.055-0.036,0.036-0.2-0.018-0.229c-0.455,0.019-0.764,0.027-1.127,0.027c-0.383,0-0.691-0.009-1.146-0.027
			c-0.054,0.028-0.072,0.19-0.018,0.229l0.228,0.017c0.536,0.046,0.554,0.201,0.554,1.164V62.527z M147.314,58.499
			c0-0.3-0.009-0.311,0.264-0.311h0.646c0.501,0,0.847,0.072,1.055,0.228c0.137,0.101,0.201,0.437,0.229,0.664
			c0.045,0.055,0.198,0.055,0.234-0.019c-0.027-0.272,0.037-1.007,0.137-1.38c-0.018-0.037-0.118-0.045-0.164-0.028
			c-0.135,0.237-0.217,0.256-0.707,0.256h-3.684c-0.418,0-0.718,0.009-0.772-0.282c-0.027-0.028-0.146-0.02-0.173,0
			c-0.064,0.363-0.2,0.943-0.346,1.354c0.037,0.072,0.164,0.118,0.236,0.063c0.1-0.228,0.191-0.428,0.409-0.628
			c0.228-0.209,0.728-0.228,1.118-0.228h0.5c0.273,0,0.273,0.01,0.273,0.291v4.065c0,0.956-0.045,1.092-0.564,1.137l-0.326,0.028
			c-0.073,0.047-0.056,0.202,0,0.229c0.582-0.019,0.9-0.028,1.264-0.028c0.362,0,0.672,0.01,1.191,0.028
			c0.055-0.027,0.072-0.191,0.018-0.229l-0.291-0.028c-0.529-0.044-0.547-0.181-0.547-1.137V58.499L147.314,58.499z M142.73,62.374
			c0-0.864-0.562-1.391-1.135-1.746l-0.727-0.454c-0.338-0.209-0.775-0.591-0.775-1.119c0-0.418,0.191-1.011,1.084-1.011
			c0.873,0,1.118,0.592,1.236,1.029c0.045,0.053,0.191,0.025,0.229-0.027c0-0.382-0.082-0.893-0.164-1.11
			c-0.073,0-0.2-0.018-0.318-0.055c-0.236-0.063-0.564-0.118-0.846-0.118c-1.184,0-1.855,0.701-1.855,1.564
			c0,0.746,0.527,1.264,0.982,1.563l0.863,0.563c0.664,0.428,0.746,0.873,0.746,1.273c0,0.545-0.373,1.045-1.137,1.045
			c-1.055,0-1.428-0.891-1.564-1.354c-0.036-0.056-0.173-0.037-0.219,0.027c0.02,0.429,0.137,1.072,0.246,1.272
			c0.173,0.1,0.654,0.335,1.418,0.335C141.979,64.055,142.73,63.375,142.73,62.374 M136.713,61.237c0,1.384-0.5,2.42-1.819,2.42
			c-1.392,0-1.845-0.965-1.845-2.429v-1.964c0-0.946,0.018-1.1,0.545-1.146l0.219-0.019c0.054-0.036,0.035-0.189-0.02-0.218
			c-0.445,0.019-0.744,0.027-1.117,0.027c-0.365,0-0.674-0.009-1.129-0.027c-0.055,0.028-0.072,0.183-0.018,0.218l0.228,0.019
			c0.526,0.047,0.546,0.2,0.546,1.146v2.146c0,1.083,0.227,1.746,0.709,2.146c0.445,0.382,1.072,0.499,1.7,0.499
			c0.673,0,1.347-0.235,1.737-0.662c0.51-0.546,0.637-1.382,0.637-2.173v-1.028c0-0.508,0-1.555,0.127-1.854
			c0.055-0.118,0.228-0.201,0.454-0.22l0.218-0.019c0.047-0.055,0.056-0.172-0.018-0.218c-0.327,0.019-0.572,0.027-0.955,0.027
			c-0.354,0-0.69-0.009-1.037-0.027c-0.053,0.037-0.072,0.155-0.018,0.218l0.229,0.019c0.227,0.019,0.391,0.083,0.454,0.191
			c0.154,0.272,0.173,1.319,0.173,1.882V61.237L136.713,61.237z M128.611,62.729c0,0.491-0.027,1.854-0.236,2.282
			c-0.063,0.127-0.173,0.236-0.363,0.236c-0.128,0-0.255-0.026-0.383-0.063c-0.118-0.035-0.227-0.054-0.336-0.054
			c-0.191,0-0.328,0.264-0.328,0.418c0,0.18,0.282,0.188,0.391,0.188c0.846,0,1.49-0.579,1.79-1.308
			c0.173-0.417,0.209-1.045,0.209-1.763v-3.375c0-0.964,0.019-1.092,0.555-1.165l0.136-0.017c0.055-0.036,0.036-0.2-0.018-0.229
			c-0.364,0.019-0.674,0.027-1.038,0.027c-0.38,0-0.69-0.009-1.217-0.027c-0.055,0.028-0.073,0.19-0.019,0.229l0.228,0.017
			c0.536,0.046,0.627,0.155,0.627,1.165v3.438H128.611z M119.772,62.547c0,0.953-0.019,1.08-0.545,1.134l-0.273,0.028
			c-0.054,0.055-0.036,0.201,0.019,0.227c0.509-0.018,0.8-0.025,1.181-0.025h0.836c0.937,0,1.801,0.009,2.265,0.025
			c0.126-0.244,0.381-1.171,0.381-1.271c0-0.063-0.173-0.101-0.228-0.056c-0.182,0.464-0.418,0.791-0.6,0.899
			c-0.145,0.083-0.336,0.12-1.109,0.12c-0.718,0-0.892-0.11-0.991-0.209c-0.163-0.174-0.191-0.41-0.191-0.982v-3.166
			c0-0.957,0.018-1.101,0.555-1.146l0.218-0.017c0.054-0.037,0.037-0.2-0.019-0.229c-0.455,0.019-0.764,0.027-1.118,0.027
			c-0.362,0-0.672-0.009-1.181-0.027c-0.054,0.028-0.073,0.19-0.019,0.229l0.228,0.017c0.572,0.046,0.591,0.189,0.591,1.146V62.547z
			 M114.651,59.41c0.101-0.273,0.191-0.492,0.218-0.537h0.019c0.055,0.108,0.136,0.354,0.209,0.571l0.491,1.483
			c0.083,0.245,0.064,0.282-0.2,0.282h-1.118c-0.254,0-0.263-0.009-0.19-0.218L114.651,59.41z M116.279,63.037
			c0.072,0.218,0.117,0.382,0.117,0.48c0,0.091-0.127,0.146-0.317,0.164l-0.264,0.028c-0.063,0.047-0.054,0.192,0.019,0.229
			c0.263-0.009,0.609-0.028,1.045-0.028c0.409,0,0.728,0.01,1.101,0.028c0.046-0.037,0.063-0.183,0-0.229l-0.246-0.028
			c-0.391-0.044-0.509-0.181-0.773-0.963l-1.246-3.655c-0.136-0.399-0.282-0.817-0.4-1.218c-0.018-0.063-0.082-0.083-0.137-0.083
			c-0.099,0.118-0.254,0.282-0.472,0.347c0.027,0.146-0.028,0.317-0.155,0.646l-0.926,2.456c-0.382,1.018-0.637,1.607-0.801,2.025
			c-0.127,0.327-0.328,0.429-0.546,0.445l-0.3,0.028c-0.054,0.047-0.036,0.192,0.019,0.229c0.246-0.009,0.573-0.028,0.873-0.028
			c0.428,0.009,0.709,0.01,0.946,0.028c0.082-0.037,0.082-0.183,0.018-0.229l-0.3-0.028c-0.218-0.018-0.264-0.072-0.264-0.181
			c0-0.102,0.063-0.345,0.2-0.755l0.318-0.954c0.063-0.192,0.119-0.218,0.346-0.218h1.371c0.274,0,0.31,0.025,0.373,0.227
			L116.279,63.037z M110.242,61.237c0,1.384-0.5,2.42-1.82,2.42c-1.392,0-1.846-0.965-1.846-2.429v-1.964
			c0-0.946,0.018-1.1,0.546-1.146l0.218-0.019c0.054-0.036,0.036-0.189-0.019-0.218c-0.445,0.019-0.745,0.027-1.118,0.027
			c-0.363,0-0.672-0.009-1.126-0.027c-0.055,0.028-0.073,0.183-0.019,0.218l0.228,0.019c0.527,0.047,0.545,0.2,0.545,1.146v2.146
			c0,1.083,0.228,1.746,0.708,2.146c0.446,0.382,1.073,0.499,1.701,0.499c0.674,0,1.348-0.235,1.738-0.662
			c0.508-0.546,0.636-1.382,0.636-2.173v-1.028c0-0.508,0-1.555,0.127-1.854c0.054-0.118,0.228-0.201,0.455-0.22l0.218-0.019
			c0.046-0.055,0.055-0.172-0.018-0.218c-0.328,0.019-0.573,0.027-0.955,0.027c-0.354,0-0.689-0.009-1.035-0.027
			c-0.055,0.037-0.073,0.155-0.019,0.218l0.228,0.019c0.228,0.019,0.391,0.083,0.455,0.191c0.154,0.272,0.172,1.319,0.172,1.882
			V61.237z M100.63,63.766c-1.792,0-2.448-1.743-2.448-3.088c0-1.988,1.228-2.633,2.173-2.633c1.738,0,2.402,1.617,2.402,3.116
			C102.758,62.948,101.721,63.766,100.63,63.766 M100.511,57.763c-1.874,0-3.237,1.389-3.237,3.205c0,1.297,0.735,2.378,1.944,2.834
			c0.328,0.127,0.655,0.181,0.892,0.218c0.254,0.045,0.336,0.063,0.61,0.339c0.337,0.328,0.937,0.86,1.682,1.206
			c0.537,0.247,1.053,0.335,1.472,0.335c0.318,0,0.728-0.07,1.018-0.233c0.027-0.046,0.009-0.127-0.044-0.137
			c-0.128,0.055-0.346,0.081-0.437,0.081c-0.21,0-0.51-0.018-0.847-0.127c-0.726-0.237-1.562-0.987-2.026-1.438
			c-0.055-0.054-0.091-0.09-0.072-0.137c1.273-0.382,2.199-1.535,2.199-3.032C103.666,59.279,102.612,57.763,100.511,57.763
			 M91.945,62.547c0,0.953-0.046,1.09-0.564,1.134l-0.3,0.028c-0.054,0.055-0.036,0.201,0.019,0.227
			c0.537-0.018,0.846-0.025,1.236-0.025h0.818c0.809,0,1.618,0.009,2.437,0.025c0.119-0.244,0.345-0.943,0.41-1.262
			c-0.037-0.083-0.164-0.109-0.228-0.063c-0.236,0.473-0.482,0.791-0.646,0.883c-0.199,0.1-0.463,0.137-1.164,0.137
			c-0.8,0-0.991-0.102-1.1-0.209c-0.146-0.155-0.173-0.464-0.173-0.946v-1.283c0-0.236,0.027-0.246,0.3-0.246h0.527
			c0.355,0,0.573,0.01,0.7,0.046c0.183,0.046,0.246,0.183,0.282,0.347l0.082,0.354c0.046,0.056,0.201,0.056,0.237-0.009
			c0-0.201-0.035-0.547-0.035-0.874c0-0.345,0.035-0.701,0.035-0.918c-0.036-0.062-0.191-0.062-0.237-0.009l-0.072,0.373
			c-0.046,0.227-0.109,0.282-0.218,0.318s-0.392,0.055-0.773,0.055H92.99c-0.273,0-0.3,0-0.3-0.255v-1.818
			c0-0.348,0-0.366,0.273-0.366h0.654c0.4,0,0.691,0.01,0.882,0.057c0.473,0.118,0.555,0.437,0.691,0.863
			c0.046,0.056,0.191,0.037,0.227-0.018c-0.036-0.401-0.091-1.056-0.145-1.21c-0.109,0.028-0.646,0.028-1.228,0.028h-1.709
			c-0.372,0-0.682-0.01-1.072-0.028c-0.055,0.028-0.073,0.191-0.019,0.229l0.146,0.019c0.536,0.062,0.555,0.201,0.555,1.146V62.547z
			"/>
	</g>
</g>
</svg>
